<?xml version="1.0" standalone="no"?>
<!DOCTYPE svg PUBLIC "-//W3C//DTD SVG 20010904//EN"
 "http://www.w3.org/TR/2001/REC-SVG-20010904/DTD/svg10.dtd">
<svg version="1.0" xmlns="http://www.w3.org/2000/svg"
 width="260.000000pt" height="260.000000pt" viewBox="0 0 260.000000 260.000000"
 preserveAspectRatio="xMidYMid meet">
<metadata>
Created by potrace 1.11, written by Peter Selinger 2001-2013
</metadata>
<g transform="translate(0.000000,260.000000) scale(0.100000,-0.100000)"
fill="#000000" stroke="none">
<path d="M322 2411 c-95 -24 -152 -109 -152 -226 0 -155 104 -251 250 -230 75
11 110 30 110 59 0 15 -1 26 -3 26 -1 0 -20 -9 -42 -20 -88 -45 -195 -18 -236
60 -26 48 -26 162 0 210 41 78 148 105 236 60 22 -11 41 -20 42 -20 2 0 3 11
3 26 0 19 -8 28 -34 39 -44 19 -132 26 -174 16z"/>
<path d="M693 2299 c-18 -5 -45 -26 -60 -46 -24 -31 -28 -47 -31 -112 -5 -125
43 -186 146 -185 100 0 152 59 152 175 0 71 -20 121 -60 149 -34 24 -103 33
-147 19z m121 -69 c98 -117 -26 -307 -130 -199 -26 27 -29 37 -29 99 0 62 3
72 29 99 41 43 94 43 130 1z"/>
<path d="M1125 2303 c-11 -3 -32 -17 -47 -31 l-28 -26 0 27 c0 22 -5 27 -25
27 l-25 0 0 -170 0 -170 24 0 c24 0 24 0 28 126 3 124 3 126 31 150 34 29 85
32 118 5 23 -18 24 -27 28 -150 3 -131 3 -131 27 -131 24 0 24 0 24 120 0 145
-15 195 -66 216 -34 14 -53 16 -89 7z"/>
<path d="M1463 2299 c-18 -5 -45 -26 -60 -46 -24 -31 -28 -47 -31 -112 -5
-125 43 -186 146 -185 100 0 152 59 152 175 0 71 -20 121 -60 149 -34 24 -103
33 -147 19z m121 -69 c98 -117 -26 -307 -130 -199 -26 27 -29 37 -29 99 0 62
3 72 29 99 41 43 94 43 130 1z"/>
<path d="M1856 2300 c-66 -21 -106 -85 -106 -170 0 -95 51 -163 133 -175 59
-9 121 13 125 44 3 20 1 23 -15 16 -10 -4 -41 -10 -70 -13 -48 -4 -55 -2 -82
25 -33 34 -47 85 -36 140 3 20 20 49 36 66 27 27 34 29 82 25 29 -3 60 -9 70
-13 25 -10 23 31 -3 45 -28 15 -101 21 -134 10z"/>
<path d="M2196 2300 c-67 -21 -106 -85 -106 -175 0 -128 97 -198 227 -165 48
13 59 19 61 39 3 20 1 23 -15 16 -33 -13 -128 -17 -155 -6 -30 11 -53 42 -63
84 l-7 27 132 0 132 0 -7 47 c-9 60 -27 95 -59 117 -32 20 -101 28 -140 16z
m119 -65 c14 -13 25 -33 25 -45 0 -19 -6 -20 -100 -20 -55 0 -100 3 -100 8 1
4 7 18 14 31 30 54 119 69 161 26z"/>
<path d="M0 895 l0 -895 1300 0 1300 0 0 895 0 895 -1300 0 -1300 0 0 -895z
m1310 820 c11 -33 14 -35 56 -35 24 0 44 -4 44 -9 0 -5 -14 -21 -31 -36 -31
-25 -31 -27 -20 -67 7 -22 10 -42 7 -45 -2 -3 -21 7 -40 22 l-36 27 -31 -26
c-50 -42 -60 -34 -34 27 14 35 14 35 -20 58 -48 33 -45 49 9 49 42 0 45 2 56
35 6 19 15 35 20 35 5 0 14 -16 20 -35z m466 -151 c44 -18 43 -30 -3 -41 -35
-8 -39 -12 -48 -58 l-11 -49 -23 38 c-23 37 -25 38 -67 31 -50 -7 -55 1 -19
35 30 29 31 34 4 72 -27 37 -19 45 30 28 39 -13 40 -12 68 21 l28 33 3 -48 c3
-44 6 -49 38 -62z m-898 65 l27 -30 39 16 c47 20 56 13 33 -26 -23 -40 -22
-48 10 -81 14 -15 24 -30 21 -33 -3 -3 -24 -1 -47 4 -42 9 -42 9 -62 -30 -26
-51 -39 -49 -39 5 0 47 1 46 -62 60 -37 8 -35 19 7 39 32 15 35 20 35 62 0 25
2 45 5 45 3 0 18 -14 33 -31z m1124 -226 c28 -27 28 -27 64 -9 20 9 39 14 42
11 3 -2 -3 -21 -14 -40 l-18 -34 27 -29 c37 -39 34 -45 -16 -38 -42 6 -44 6
-60 -29 -23 -49 -47 -47 -47 5 0 39 -1 40 -40 46 -55 9 -57 18 -10 39 39 17
39 18 33 61 -7 51 0 54 39 17z m-1379 -28 c-5 -44 -5 -44 36 -61 22 -9 41 -20
41 -24 0 -9 -36 -20 -67 -20 -20 0 -23 -5 -23 -39 0 -54 -16 -60 -42 -16 -21
37 -22 37 -71 31 l-50 -7 31 36 c18 20 32 38 32 40 0 3 -9 19 -19 37 -27 43
-18 51 27 27 l37 -21 24 31 c35 45 50 41 44 -14z m1632 -316 c6 -27 10 -29 51
-29 24 0 44 -4 44 -9 0 -5 -14 -21 -30 -35 -30 -25 -30 -25 -16 -65 16 -47 7
-52 -39 -21 l-29 19 -32 -24 c-18 -14 -35 -25 -38 -25 -3 0 -3 21 0 48 6 44 4
48 -25 65 -43 25 -39 37 14 37 45 0 45 0 57 45 13 49 32 47 43 -6z m-1865 -31
c9 -25 14 -28 57 -28 l48 0 -39 -33 c-38 -33 -39 -34 -26 -71 15 -46 7 -56
-23 -29 -39 35 -46 36 -83 8 -19 -15 -37 -25 -39 -23 -2 2 2 23 8 47 11 41 11
44 -16 65 -38 31 -35 48 9 44 38 -3 45 3 65 57 12 33 14 31 39 -37z m1700
-618 c0 -153 -1 -160 -20 -160 -19 0 -20 7 -20 160 0 153 1 160 20 160 19 0
20 -7 20 -160z m-1782 22 l45 -123 46 123 c42 112 49 123 73 126 l26 3 -57
-153 c-55 -146 -59 -153 -87 -156 -28 -3 -30 1 -55 70 -15 40 -41 110 -58 156
l-31 83 26 -3 c24 -3 31 -15 72 -126z m353 48 c24 -13 49 -61 49 -95 0 -25 -1
-25 -85 -25 -76 0 -85 -2 -85 -18 0 -44 65 -68 133 -49 26 7 28 6 25 -15 -3
-21 -9 -23 -70 -26 -62 -3 -69 -1 -100 27 -31 27 -33 34 -33 91 0 57 2 64 33
91 35 31 94 39 133 19z m278 -16 c18 -23 21 -41 21 -120 0 -87 -1 -94 -20 -94
-18 0 -20 7 -20 85 0 72 -3 88 -21 106 -14 14 -27 18 -42 14 -38 -12 -47 -34
-47 -122 0 -82 0 -83 -25 -83 l-25 0 0 115 0 116 35 -3 c19 -1 37 1 41 5 4 4
24 7 45 7 29 0 42 -6 58 -26z m252 16 c24 -13 49 -61 49 -95 0 -25 -1 -25 -85
-25 -76 0 -85 -2 -85 -18 0 -44 65 -68 133 -49 26 7 28 6 25 -15 -3 -21 -9
-23 -70 -26 -62 -3 -69 -1 -100 27 -31 27 -33 34 -33 91 0 57 2 64 33 91 35
31 94 39 133 19z m750 0 c24 -13 49 -61 49 -95 0 -25 -1 -25 -85 -25 -76 0
-85 -2 -85 -18 0 -44 65 -68 133 -49 26 7 28 6 25 -15 -3 -21 -9 -23 -70 -26
-62 -3 -69 -1 -100 27 -31 27 -33 34 -33 91 0 57 2 64 33 91 35 31 94 39 133
19z m384 -15 c23 -22 25 -32 25 -120 0 -88 -1 -95 -20 -95 -12 0 -20 7 -20 17
0 15 -1 15 -18 0 -11 -10 -35 -17 -60 -17 -73 0 -107 75 -57 125 20 21 34 25
80 25 58 0 63 5 42 34 -15 20 -55 25 -99 13 -21 -6 -28 -4 -28 7 0 23 30 35
83 36 38 0 53 -5 72 -25z m-855 1 c0 -8 -32 -52 -70 -98 l-71 -83 71 -3 c53
-2 70 -6 70 -17 0 -12 -19 -15 -100 -15 -80 0 -100 3 -100 14 0 8 32 52 70 98
l71 83 -66 3 c-49 2 -65 7 -65 17 0 12 19 15 95 15 76 0 95 -3 95 -14z m90
-76 c0 -78 2 -91 19 -100 29 -15 39 -13 66 15 22 21 25 33 25 100 0 68 2 75
20 75 19 0 20 -7 20 -115 0 -108 -1 -115 -20 -115 -11 0 -20 7 -20 16 0 14 -2
14 -22 0 -23 -17 -64 -21 -93 -10 -30 12 -45 60 -45 144 0 79 0 80 25 80 25 0
25 -1 25 -90z"/>
<path d="M580 453 c-19 -7 -40 -33 -40 -50 0 -9 17 -13 60 -13 53 0 60 2 60
19 0 11 -10 27 -22 35 -23 17 -33 18 -58 9z"/>
<path d="M1110 453 c-19 -7 -40 -33 -40 -50 0 -9 17 -13 60 -13 53 0 60 2 60
19 0 11 -10 27 -22 35 -23 17 -33 18 -58 9z"/>
<path d="M1860 453 c-19 -7 -40 -33 -40 -50 0 -9 17 -13 60 -13 53 0 60 2 60
19 0 11 -10 27 -22 35 -23 17 -33 18 -58 9z"/>
<path d="M2230 361 c-36 -10 -40 -57 -7 -72 39 -18 87 21 87 72 0 10 -42 10
-80 0z"/>
</g>
</svg>
